<mxfile host="Electron" modified="2025-03-24T02:34:53.512Z" agent="Mozilla/5.0 (X11; Linux x86_64) AppleWebKit/537.36 (KHTML, like Gecko) draw.io/24.5.1 Chrome/124.0.6367.207 Electron/30.0.6 Safari/537.36" etag="jwP8WM2VtPM_fB92ZtYm" version="24.5.1" type="device">
  <diagram id="C5RBs43oDa-KdzZeNtuy" name="Page-1">
    <mxGraphModel dx="1434" dy="838" grid="1" gridSize="10" guides="1" tooltips="1" connect="1" arrows="1" fold="1" page="1" pageScale="1" pageWidth="827" pageHeight="1169" math="0" shadow="0">
      <root>
        <mxCell id="WIyWlLk6GJQsqaUBKTNV-0" />
        <mxCell id="WIyWlLk6GJQsqaUBKTNV-1" parent="WIyWlLk6GJQsqaUBKTNV-0" />
        <mxCell id="Qd_5o8CE9ou_Cl5YzviC-5" style="edgeStyle=orthogonalEdgeStyle;rounded=0;orthogonalLoop=1;jettySize=auto;html=1;" edge="1" parent="WIyWlLk6GJQsqaUBKTNV-1" source="Qd_5o8CE9ou_Cl5YzviC-0" target="Qd_5o8CE9ou_Cl5YzviC-4">
          <mxGeometry relative="1" as="geometry" />
        </mxCell>
        <mxCell id="Qd_5o8CE9ou_Cl5YzviC-0" value="" style="rounded=1;whiteSpace=wrap;html=1;" vertex="1" parent="WIyWlLk6GJQsqaUBKTNV-1">
          <mxGeometry x="120" y="160" width="120" height="60" as="geometry" />
        </mxCell>
        <mxCell id="Qd_5o8CE9ou_Cl5YzviC-1" value="master" style="ellipse;whiteSpace=wrap;html=1;aspect=fixed;" vertex="1" parent="WIyWlLk6GJQsqaUBKTNV-1">
          <mxGeometry x="140" width="80" height="80" as="geometry" />
        </mxCell>
        <mxCell id="Qd_5o8CE9ou_Cl5YzviC-2" value="local" style="ellipse;whiteSpace=wrap;html=1;aspect=fixed;" vertex="1" parent="WIyWlLk6GJQsqaUBKTNV-1">
          <mxGeometry x="600" width="80" height="80" as="geometry" />
        </mxCell>
        <mxCell id="Qd_5o8CE9ou_Cl5YzviC-3" value="fork" style="ellipse;whiteSpace=wrap;html=1;aspect=fixed;" vertex="1" parent="WIyWlLk6GJQsqaUBKTNV-1">
          <mxGeometry x="360" width="80" height="80" as="geometry" />
        </mxCell>
        <mxCell id="Qd_5o8CE9ou_Cl5YzviC-7" style="edgeStyle=orthogonalEdgeStyle;rounded=0;orthogonalLoop=1;jettySize=auto;html=1;" edge="1" parent="WIyWlLk6GJQsqaUBKTNV-1" source="Qd_5o8CE9ou_Cl5YzviC-4" target="Qd_5o8CE9ou_Cl5YzviC-6">
          <mxGeometry relative="1" as="geometry" />
        </mxCell>
        <mxCell id="Qd_5o8CE9ou_Cl5YzviC-4" value="" style="rounded=1;whiteSpace=wrap;html=1;" vertex="1" parent="WIyWlLk6GJQsqaUBKTNV-1">
          <mxGeometry x="340" y="160" width="120" height="60" as="geometry" />
        </mxCell>
        <mxCell id="Qd_5o8CE9ou_Cl5YzviC-9" style="edgeStyle=orthogonalEdgeStyle;rounded=0;orthogonalLoop=1;jettySize=auto;html=1;" edge="1" parent="WIyWlLk6GJQsqaUBKTNV-1" source="Qd_5o8CE9ou_Cl5YzviC-6" target="Qd_5o8CE9ou_Cl5YzviC-8">
          <mxGeometry relative="1" as="geometry" />
        </mxCell>
        <mxCell id="Qd_5o8CE9ou_Cl5YzviC-6" value="" style="rounded=1;whiteSpace=wrap;html=1;" vertex="1" parent="WIyWlLk6GJQsqaUBKTNV-1">
          <mxGeometry x="580" y="160" width="120" height="60" as="geometry" />
        </mxCell>
        <mxCell id="Qd_5o8CE9ou_Cl5YzviC-11" style="edgeStyle=orthogonalEdgeStyle;rounded=0;orthogonalLoop=1;jettySize=auto;html=1;" edge="1" parent="WIyWlLk6GJQsqaUBKTNV-1" source="Qd_5o8CE9ou_Cl5YzviC-8" target="Qd_5o8CE9ou_Cl5YzviC-10">
          <mxGeometry relative="1" as="geometry" />
        </mxCell>
        <mxCell id="Qd_5o8CE9ou_Cl5YzviC-8" value="" style="rounded=1;whiteSpace=wrap;html=1;" vertex="1" parent="WIyWlLk6GJQsqaUBKTNV-1">
          <mxGeometry x="580" y="270" width="120" height="60" as="geometry" />
        </mxCell>
        <mxCell id="Qd_5o8CE9ou_Cl5YzviC-10" value="" style="rounded=1;whiteSpace=wrap;html=1;" vertex="1" parent="WIyWlLk6GJQsqaUBKTNV-1">
          <mxGeometry x="580" y="370" width="120" height="60" as="geometry" />
        </mxCell>
      </root>
    </mxGraphModel>
  </diagram>
</mxfile>
